<svg width="24" height="24" viewBox="0 0 24 24" fill="none" xmlns="http://www.w3.org/2000/svg">
<path d="M2.928 9.216C2.992 8.224 3.37067 7.45067 4.064 6.896C4.768 6.34133 5.664 6.064 6.752 6.064C7.49867 6.064 8.144 6.19733 8.688 6.464C9.232 6.73067 9.64267 7.09333 9.92 7.552C10.1973 8.01067 10.336 8.528 10.336 9.104C10.336 9.76533 10.16 10.3307 9.808 10.8C9.456 11.2693 9.03467 11.584 8.544 11.744V11.808C9.17333 12 9.664 12.352 10.016 12.864C10.368 13.3653 10.544 14.0107 10.544 14.8C10.544 15.4293 10.4 15.9893 10.112 16.48C9.824 16.9707 9.39733 17.36 8.832 17.648C8.26667 17.9253 7.58933 18.064 6.8 18.064C5.648 18.064 4.69867 17.7707 3.952 17.184C3.216 16.5867 2.82133 15.7333 2.768 14.624H4.528C4.57067 15.1893 4.78933 15.6533 5.184 16.016C5.57867 16.368 6.112 16.544 6.784 16.544C7.43467 16.544 7.936 16.368 8.288 16.016C8.64 15.6533 8.816 15.1893 8.816 14.624C8.816 13.8773 8.576 13.3493 8.096 13.04C7.62667 12.72 6.90133 12.56 5.92 12.56H5.504V11.056H5.936C6.8 11.0453 7.456 10.9013 7.904 10.624C8.36267 10.3467 8.592 9.90933 8.592 9.312C8.592 8.8 8.42667 8.39467 8.096 8.096C7.76533 7.78667 7.296 7.632 6.688 7.632C6.09067 7.632 5.62667 7.78667 5.296 8.096C4.96533 8.39467 4.768 8.768 4.704 9.216H2.928ZM17.804 12.448L21.26 18H19.212L16.7 13.968L14.348 18H12.316L15.772 12.448L12.3 6.88H14.348L16.876 10.944L19.244 6.88H21.276L17.804 12.448Z" fill="white"/>
</svg>
