<svg width="64" height="64" viewBox="0 0 64 64" fill="none" xmlns="http://www.w3.org/2000/svg">
<path d="M21.49 24.68C21.6204 24.6807 21.746 24.6305 21.84 24.54L24.54 21.84C24.6293 21.7453 24.679 21.6201 24.679 21.49C24.679 21.3598 24.6293 21.2346 24.54 21.14L19.89 16.5H32C36.11 16.5026 40.051 18.1365 42.9572 21.0427C45.8634 23.949 47.4973 27.8899 47.5 32C47.5 32.1326 47.5527 32.2597 47.6464 32.3535C47.7402 32.4473 47.8674 32.5 48 32.5H51.81C51.9426 32.5 52.0698 32.4473 52.1635 32.3535C52.2573 32.2597 52.31 32.1326 52.31 32C52.3047 26.615 50.1632 21.4522 46.3555 17.6445C42.5478 13.8367 37.3849 11.6952 32 11.69H19.89L24.54 6.99995C24.6311 6.90238 24.6813 6.77348 24.68 6.63995C24.6808 6.50949 24.6305 6.38389 24.54 6.28995L21.84 3.60995C21.7951 3.56212 21.7409 3.524 21.6807 3.49794C21.6205 3.47188 21.5556 3.45844 21.49 3.45844C21.4244 3.45844 21.3595 3.47188 21.2993 3.49794C21.2391 3.524 21.1849 3.56212 21.14 3.60995L11 13.74C10.9077 13.8351 10.8561 13.9624 10.8561 14.095C10.8561 14.2275 10.9077 14.3548 11 14.45L21.1 24.54C21.1512 24.5898 21.2125 24.6281 21.2798 24.6523C21.3471 24.6764 21.4187 24.6859 21.49 24.68Z" fill="white"/>
<path d="M52.9999 49.55L42.8599 39.46C42.7653 39.3706 42.6401 39.3209 42.5099 39.3209C42.3798 39.3209 42.2546 39.3706 42.1599 39.46L39.4599 42.16C39.3706 42.2546 39.3209 42.3798 39.3209 42.51C39.3209 42.6401 39.3706 42.7653 39.4599 42.86L44.1099 47.5H31.9999C27.8899 47.4973 23.949 45.8634 21.0427 42.9572C18.1365 40.0509 16.5026 36.11 16.4999 32C16.4999 31.8673 16.4473 31.7402 16.3535 31.6464C16.2597 31.5526 16.1326 31.5 15.9999 31.5H12.1899C12.0573 31.5 11.9302 31.5526 11.8364 31.6464C11.7426 31.7402 11.6899 31.8673 11.6899 32C11.6952 37.3849 13.8367 42.5477 17.6445 46.3554C21.4522 50.1632 26.615 52.3047 31.9999 52.31H44.1099L39.4599 57C39.3688 57.0975 39.3187 57.2264 39.3199 57.36C39.3192 57.4904 39.3694 57.616 39.4599 57.71L42.1599 60.39C42.2053 60.437 42.2597 60.4746 42.3198 60.5003C42.3799 60.5261 42.4445 60.5396 42.5099 60.54C42.5755 60.5408 42.6405 60.5278 42.7008 60.502C42.7611 60.4762 42.8153 60.438 42.8599 60.39L52.9999 50.26C53.0922 50.1648 53.1438 50.0375 53.1438 49.905C53.1438 49.7724 53.0922 49.6451 52.9999 49.55Z" fill="white"/>
</svg>
